<?xml version="1.0" encoding="UTF-8" standalone="no"?>
<!-- Created with Inkscape (http://www.inkscape.org/) -->

<svg
   xmlns:dc="http://purl.org/dc/elements/1.1/"
   xmlns:cc="http://creativecommons.org/ns#"
   xmlns:rdf="http://www.w3.org/1999/02/22-rdf-syntax-ns#"
   xmlns:svg="http://www.w3.org/2000/svg"
   xmlns="http://www.w3.org/2000/svg"
   xmlns:sodipodi="http://sodipodi.sourceforge.net/DTD/sodipodi-0.dtd"
   xmlns:inkscape="http://www.inkscape.org/namespaces/inkscape"
   width="210mm"
   height="297mm"
   viewBox="0 0 744.09448819 1052.3622047"
   id="svg2"
   version="1.1"
   inkscape:version="0.91 r13725"
   sodipodi:docname="FF_Pictograma.svg">
  <defs
     id="defs4" />
  <sodipodi:namedview
     id="base"
     pagecolor="#ffffff"
     bordercolor="#666666"
     borderopacity="1.0"
     inkscape:pageopacity="0.0"
     inkscape:pageshadow="2"
     inkscape:zoom="0.35"
     inkscape:cx="-152.14286"
     inkscape:cy="520"
     inkscape:document-units="px"
     inkscape:current-layer="layer1"
     showgrid="false"
     inkscape:window-width="1366"
     inkscape:window-height="705"
     inkscape:window-x="-8"
     inkscape:window-y="-8"
     inkscape:window-maximized="1" />
  <metadata
     id="metadata7">
    <rdf:RDF>
      <cc:Work
         rdf:about="">
        <dc:format>image/svg+xml</dc:format>
        <dc:type
           rdf:resource="http://purl.org/dc/dcmitype/StillImage" />
        <dc:title></dc:title>
      </cc:Work>
    </rdf:RDF>
  </metadata>
  <g
     inkscape:label="Camada 1"
     inkscape:groupmode="layer"
     id="layer1">
    <path
       style="fill:#000000; fill: #FFFFFF"
       d="m -565.78336,828.0519 c -0.0725,-0.0644 -58.9834,-0.20284 -130.91309,-0.30765 -74.56597,-0.10863 -131.1881,-0.30972 -131.7277,-0.46781 -2.9249,-0.8571 -5.7771,-3.26925 -6.9221,-5.85425 -0.3746,-0.84572 -2.2018,-5.75641 -4.0604,-10.91266 -2.9624,-8.2185 -3.375,-9.60631 -3.3449,-11.25 0.073,-3.98897 2.547,-7.71675 6.2833,-9.46756 l 1.803,-0.84494 196.87505,-0.0109 c 186.77956,-0.0103 197.01659,-0.0392 199.63606,-0.56197 7.15069,-1.4269 9.59028,-3.51531 9.57616,-8.19759 -0.004,-1.19184 -3.35497,-38.94041 -7.44747,-83.88572 -8.24272,-90.52415 -7.38091,-83.16625 -10.08484,-86.09969 -1.77369,-1.92421 -4.4361,-3.255 -6.93194,-3.46484 -1.25003,-0.10512 -11.5496,0.78016 -29.08325,2.49972 -14.93128,1.46437 -27.191,2.70569 -27.24381,2.7585 -0.0528,0.0528 4.12896,26.60191 9.29278,58.99803 5.16384,32.39613 9.39862,59.81609 9.41062,60.93328 0.0369,3.43994 -1.79612,6.44456 -4.90869,8.04606 -1.28287,0.66007 -2.13475,0.84147 -4.40312,0.93766 -1.54688,0.0656 -38.62763,-0.66187 -82.40166,-1.61656 -76.61997,-1.67106 -79.65172,-1.75922 -81.26547,-2.36297 -1.88584,-0.70559 -4.00934,-2.61881 -5.034,-4.53544 -0.5905,-1.10456 -0.67965,-1.84987 -0.76634,-6.40625 -0.0539,-2.83594 0.0322,-8.8125 0.19131,-13.28125 0.23025,-6.46459 0.39703,-8.37109 0.8161,-9.32919 0.78406,-1.79256 3.10162,-4.09665 4.95575,-4.9269 1.44372,-0.64647 2.05647,-0.72363 5.37931,-0.67722 2.0625,0.0288 28.50347,0.57772 58.75772,1.21984 l 55.00772,1.1675 1.71293,-0.78422 c 3.27616,-1.49984 5.2941,-4.47871 5.29982,-7.82359 0.004,-2.36706 -13.62628,-91.27828 -14.25813,-93.00606 -0.78828,-2.15572 -2.29209,-3.86031 -4.32097,-4.89791 l -1.83656,-0.93928 -34.626,0.10838 c -39.47128,0.1235 -36.7295,0.2959 -39.79081,-2.50197 -2.98575,-2.72878 -2.96122,-2.58944 -3.05347,-17.35107 l -0.0797,-12.75834 0.74431,-1.64691 c 1.01766,-2.25175 3.62819,-4.61062 5.763,-5.2075 1.26144,-0.35268 7.68572,-0.59728 29.17188,-1.11075 15.15481,-0.36218 27.9599,-0.77484 28.45575,-0.91706 3.7415,-1.07303 6.32465,-4.49178 6.33075,-8.37856 0.003,-1.09344 -6.51013,-42.06513 -14.84069,-93.37572 -8.16406,-50.28506 -14.84375,-92.02783 -14.84375,-92.76166 0,-2.31522 0.88019,-4.24693 2.81991,-6.18866 2.89103,-2.89404 2.62303,-2.85984 19.93434,-2.54391 l 14.59816,0.26642 1.78143,0.87158 c 2.15357,1.05365 4.09763,3.16766 4.7435,5.15819 0.26047,0.80275 8.16232,49.90485 17.55969,109.11579 9.39738,59.21094 17.11438,107.69206 17.14894,107.73584 0.0345,0.0438 13.17778,-1.8099 29.20719,-4.11925 32.73918,-4.71675 31.13922,-4.36265 34.03681,-7.53306 1.87906,-2.056 2.63056,-4.07919 2.59256,-6.97972 -0.015,-1.1399 -2.14103,-26.08725 -4.72469,-55.43853 -3.88871,-44.17759 -4.64103,-53.61815 -4.36928,-54.83069 0.7756,-3.46081 3.54575,-6.68909 6.77744,-7.89822 2.60478,-0.97459 28.35363,-3.60996 30.394,-3.11084 2.43478,0.59563 3.76678,2.41266 4.36647,5.95647 0.47416,2.80212 35.35597,377.75653 35.39225,380.44156 0.0238,1.75847 -0.1395,2.56922 -0.82513,4.097 -0.97225,2.16644 -3.07231,4.38728 -5.18359,5.48172 l -1.40625,0.72897 -87.99316,0.0797 c -48.39625,0.0439 -88.0525,0.0272 -88.125,-0.0374 z m -164.97559,-88.61937 -9.21875,-0.173 -1.78575,-0.87694 c -2.15819,-1.05978 -4.10238,-3.17422 -4.74784,-5.16353 -0.26047,-0.80275 -8.16232,-49.90484 -17.55969,-109.11578 -9.39738,-59.21094 -17.11438,-107.69206 -17.14894,-107.73584 -0.0345,-0.0438 -13.17778,1.8099 -29.20723,4.11925 -32.7391,4.71675 -31.1392,4.36265 -34.0368,7.53306 -1.8792,2.05619 -2.6306,4.07928 -2.5923,6.97972 0.015,1.1399 2.1416,26.08515 4.7257,55.43384 3.897,44.25931 4.6422,53.61194 4.3691,54.83069 -0.7767,3.46556 -3.545,6.69309 -6.7785,7.90291 -2.6048,0.97459 -28.3536,3.60996 -30.394,3.11084 -2.3931,-0.58544 -3.7356,-2.37331 -4.3443,-5.78522 -0.454,-2.54534 -35.37611,-377.87243 -35.41381,-380.61281 -0.024,-1.75928 0.1386,-2.56852 0.8245,-4.09699 0.9723,-2.16643 3.0723,-4.38728 5.1836,-5.48173 l 1.4062,-0.72897 106.87511,0.0239 c 157.1972,0.0351 330.82301,0.41089 331.89504,0.71834 2.89088,0.82909 5.76644,3.26117 6.911,5.84516 0.3746,0.8457 2.20175,5.75639 4.06035,10.91264 2.96237,8.21849 3.375,9.6063 3.3449,11.25 -0.073,3.98896 -2.547,7.71675 -6.28325,9.46756 l -1.80309,0.84494 -196.875,0.011 c -186.77955,0.0104 -197.01655,0.0392 -199.63605,0.56195 -7.1507,1.42692 -9.5903,3.51532 -9.5762,8.19761 0,1.19183 3.355,38.9404 7.4475,83.88571 8.2427,90.52416 7.3809,83.16625 10.0848,86.09969 1.7737,1.92422 4.4361,3.255 6.932,3.46484 1.25,0.10513 11.5496,-0.78015 29.0832,-2.49972 14.9313,-1.46437 27.19103,-2.70568 27.24384,-2.7585 0.0528,-0.0528 -4.12896,-26.6019 -9.29278,-58.99803 -5.16386,-32.39612 -9.39866,-59.81609 -9.41066,-60.93328 -0.037,-3.43994 1.7962,-6.44457 4.9087,-8.04605 1.2829,-0.66007 2.1348,-0.84148 4.4032,-0.93766 1.54683,-0.0656 38.62758,0.66187 82.40161,1.61656 76.61997,1.67104 79.65172,1.7592 81.26547,2.36298 1.88584,0.70558 4.00934,2.61878 5.034,4.53542 0.5905,1.10457 0.67965,1.84989 0.76634,6.40625 0.0539,2.83594 -0.0322,8.8125 -0.19131,13.28125 -0.23025,6.46459 -0.39704,8.37109 -0.8161,9.32919 -0.78406,1.79256 -3.10162,4.09665 -4.95575,4.9269 -1.44372,0.64647 -2.05647,0.72363 -5.37931,0.67722 -2.0625,-0.0288 -28.50347,-0.57772 -58.75772,-1.21984 l -55.00772,-1.1675 -1.71293,0.78422 c -3.2751,1.49937 -5.2941,4.47887 -5.29982,7.82115 -0.004,2.36888 13.62585,91.28425 14.25735,93.0085 0.78987,2.15663 2.29337,3.86057 4.32175,4.89791 l 1.83656,0.93928 34.626,-0.10837 c 39.47128,-0.1235 36.7295,-0.29591 39.79081,2.50196 2.98575,2.72879 2.96122,2.58944 3.05347,17.35107 l 0.0797,12.75831 -0.74431,1.64691 c -1.01766,2.25175 -3.62819,4.61062 -5.763,5.2075 -1.26144,0.35268 -7.68572,0.59728 -29.17188,1.11075 -15.15481,0.36218 -27.9599,0.77484 -28.45575,0.91706 -3.7399,1.07259 -6.32465,4.49197 -6.33075,8.37497 -0.003,1.08862 6.53122,42.19312 14.84069,93.37603 8.16406,50.28725 14.84375,92.03159 14.84375,92.76528 0,2.31269 -0.8805,4.24688 -2.81469,6.18309 -2.99194,2.99507 -2.047,2.90297 -25.31031,2.46641 z"
       id="path4167"
       inkscape:connector-curvature="0"
       inkscape:export-xdpi="90"
       inkscape:export-ydpi="90" />
    <path
       style="fill:#000000"
       d=""
       id="path4147"
       inkscape:connector-curvature="0" />
  </g>
</svg>
