<svg xmlns="http://www.w3.org/2000/svg" xmlns:xlink="http://www.w3.org/1999/xlink" width="30" height="30" viewBox="0 0 30 30">
  <defs>
    <style>
      .cls-1, .cls-3 {
        fill: #fff;
      }

      .cls-1 {
        stroke: #707070;
      }

      .cls-2 {
        clip-path: url(#clip-path);
      }
    </style>
    <clipPath id="clip-path">
      <rect id="Ret칙ngulo_94" data-name="Ret칙ngulo 94" class="cls-1" width="30" height="30" transform="translate(1876 1638)"/>
    </clipPath>
  </defs>
  <g id="Grupo_de_m치scara_2" data-name="Grupo de m치scara 2" class="cls-2" transform="translate(-1876 -1638)">
    <g id="FF_Pictograma_copiar" data-name="FF_Pictograma copiar" transform="translate(1862.856 1627.693)">
      <path id="Caminho_135" data-name="Caminho 135" class="cls-3" d="M18.157,30.5l-.494-5.615a.569.569,0,0,1,.448-.6l3.038-.435,1.806,11.355a.473.473,0,0,0,.488.4l1.377.026a.473.473,0,0,0,.455-.547l-1.562-9.649a.482.482,0,0,1,.475-.554l2.768-.066a.478.478,0,0,0,.475-.481V23.205a.478.478,0,0,0-.481-.475l-3.486.007a.481.481,0,0,1-.475-.409L22.263,17.6a.481.481,0,0,1,.481-.554l5.978.132a.478.478,0,0,0,.488-.468l.026-1.134a.478.478,0,0,0-.468-.488L20.3,14.908a.478.478,0,0,0-.481.554l1,6.254-2.8.27a.591.591,0,0,1-.705-.5l-.771-8.522c-.026-.283-.04-.514.725-.6l20.648.007a.568.568,0,0,0,.455-.672l-.336-.923a.6.6,0,0,0-.705-.428l-22.75-.04a.56.56,0,0,0-.461.6l1.845,19.811c.033.31.059.54.382.514l1.285-.132A.554.554,0,0,0,18.157,30.5Z"/>
      <path id="Caminho_136" data-name="Caminho 136" class="cls-3" d="M42.179,39.7,40.334,19.89c-.033-.31-.059-.54-.382-.514l-1.285.132a.565.565,0,0,0-.534.613l.494,5.615a.569.569,0,0,1-.448.6l-3.038.435L33.335,15.415a.473.473,0,0,0-.488-.4l-1.377-.026a.473.473,0,0,0-.455.547l1.555,9.642a.482.482,0,0,1-.475.554l-2.768.066a.478.478,0,0,0-.475.481V27.41a.478.478,0,0,0,.481.475l3.486-.007a.481.481,0,0,1,.475.409l.725,4.725a.481.481,0,0,1-.481.554l-5.978-.132a.478.478,0,0,0-.488.468l-.026,1.134a.478.478,0,0,0,.468.488l8.469.185a.478.478,0,0,0,.481-.554l-1-6.254,2.8-.27a.591.591,0,0,1,.705.5l.771,8.522c.026.283.04.514-.725.6l-20.648-.007a.568.568,0,0,0-.455.672l.336.923a.6.6,0,0,0,.705.428l22.75.04A.576.576,0,0,0,42.179,39.7Z"/>
    </g>
  </g>
</svg>
