<svg xmlns="http://www.w3.org/2000/svg" width="58.908" height="58.895" viewBox="0 0 58.908 58.895">
  <defs>
    <style>
      .cls-1 {
        fill: #fff;
      }
    </style>
  </defs>
  <path id="Icon_awesome-instagram" data-name="Icon awesome-instagram" class="cls-1" d="M29.456,16.585a15.1,15.1,0,1,0,15.1,15.1A15.076,15.076,0,0,0,29.456,16.585Zm0,24.917a9.817,9.817,0,1,1,9.817-9.817A9.835,9.835,0,0,1,29.456,41.5ZM48.7,15.968a3.522,3.522,0,1,1-3.522-3.522A3.514,3.514,0,0,1,48.7,15.968Zm10,3.575c-.223-4.718-1.3-8.9-4.757-12.34S46.317,2.681,41.6,2.445c-4.862-.276-19.437-.276-24.3,0-4.7.223-8.884,1.3-12.34,4.744S.438,14.811.2,19.529c-.276,4.862-.276,19.437,0,24.3.223,4.718,1.3,8.9,4.757,12.34s7.622,4.521,12.34,4.757c4.862.276,19.437.276,24.3,0,4.718-.223,8.9-1.3,12.34-4.757s4.521-7.622,4.757-12.34c.276-4.862.276-19.424,0-24.286Zm-6.282,29.5a9.939,9.939,0,0,1-5.6,5.6c-3.877,1.538-13.076,1.183-17.36,1.183s-13.5.342-17.36-1.183a9.939,9.939,0,0,1-5.6-5.6C4.959,45.169,5.314,35.97,5.314,31.685s-.342-13.5,1.183-17.36a9.939,9.939,0,0,1,5.6-5.6c3.877-1.538,13.076-1.183,17.36-1.183s13.5-.342,17.36,1.183a9.939,9.939,0,0,1,5.6,5.6C53.952,18.2,53.6,27.4,53.6,31.685S53.952,45.182,52.414,49.046Z" transform="translate(0.005 -2.238)"/>
</svg>
