<?xml version="1.0" encoding="utf-8"?>
<!-- Generator: Adobe Illustrator 23.0.1, SVG Export Plug-In . SVG Version: 6.00 Build 0)  -->
<svg version="1.1" id="Camada_1" xmlns="http://www.w3.org/2000/svg" xmlns:xlink="http://www.w3.org/1999/xlink" x="0px" y="0px"
	 viewBox="0 0 836 768" style="enable-background:new 0 0 836 768;" xml:space="preserve">
<style type="text/css">
	.st0{fill:#39888A;}
	.st1{display:none;}
	.st2{display:inline;}
	.st3{fill:#F9D236;}
	.st4{fill:#C74000;}
	.st5{fill:#F88200;}
</style>
<rect x="647.5" y="228.3" transform="matrix(0.9935 0.1138 -0.1138 0.9935 33.7687 -76.1833)" class="st0" width="73.4" height="58.8"/>
<g class="st1">
	<defs>
		<rect id="SVGID_1_" x="-145" y="-291.6" width="730" height="393.3"/>
	</defs>
	<clipPath id="SVGID_2_" class="st2">
		<use xlink:href="#SVGID_1_"  style="overflow:visible;"/>
	</clipPath>
	<g style="display:inline;clip-path:url(#SVGID_2_);">
		
			<image style="overflow:visible;" width="4000" height="2250" xlink:href="../../../../Downloads/Apresentação FF -01.jpg"  transform="matrix(0.2982 0 0 0.2982 -367.9124 -482.0322)">
		</image>
	</g>
</g>
<rect x="376.2" y="260.1" transform="matrix(0.9941 -0.1084 0.1084 0.9941 -28.1271 45.701)" class="st3" width="60.3" height="42.9"/>
<rect x="196.5" y="294.8" transform="matrix(0.979 -0.2037 0.2037 0.979 -62.6353 49.7677)" class="st4" width="28" height="68.8"/>
<path class="st5" d="M450,313l-6-65c-0.1-2.1-2.9-4.1-5-4l-71.1,14.8c-1.8,0.1-3.1,1.5-3,3.3l8.5,85.5L374,358
	c0.1,1.8,1.5,3.5,3.4,3.9l8.5-0.5c2.2,0.4,4.1-1.1,4-3.1l-0.2-2.2c0,0,0,0,0.1,0l-1.9-39c0-1.7,2.3-2.9,4-3l39-9
	c2.1-0.1,3.9,1.9,4,4l0.1,2c0,0,0,0-0.1,0l0.1,0.9l0.1,2.2c0,0,0.1,0,0.1,0l4.3,47.4c0.1,1.3,1.6,2.4,3.4,2.5l9.6-0.7
	c2.1,0.2,3.8-1,3.7-2.5L450,313z M431,289l-45,12c-2.3,0-3-3.7-3-6l-2-21c0-2,1.1-3,3-3l42-9c2.3,0,5,2.7,5,5l2,17
	C433,285,432.9,289,431,289z"/>
<rect x="319.6" y="114.5" transform="matrix(0.978 -0.2088 0.2088 0.978 -24.0702 82.9343)" class="st4" width="122.5" height="82"/>
<rect x="126.3" y="143.8" transform="matrix(0.978 -0.2088 0.2088 0.978 -33.2859 35.1391)" class="st0" width="47" height="63"/>
<path class="st5" d="M99.8,205l-1.8-7.9c-0.4-1.8-2.3-3-4.2-2.6l-25.2,5.2c-1.7,0.4-3.4-0.5-4.1-2.1L52,165.6
	c-0.8-2,0.5-4.2,2.6-4.6l43.5-8c1.9-0.4,3.2-2.1,2.8-4l-1.6-7.9c-0.4-1.9-2.2-3.1-4.1-2.7l-61.6,11.3c-2.2,0.4-3.4,2.6-2.6,4.6
	l53.3,133.2c0.6,1.6,2.4,2.5,4.2,2.1l10-1.9c2.1-0.5,3.2-2.6,2.5-4.5l-26.3-65.1c-0.8-2,0.4-4.1,2.6-4.5l20-4.6
	C99,208.6,100.2,206.8,99.8,205z"/>
<path class="st5" d="M184.9,272.3l11.2-2.4c2.1-0.4,3.2-2.6,2.3-4.4L174.5,214c-0.9-2,0.4-4.2,2.6-4.5l14.2-1.7
	c2-0.2,3.4-2.2,2.8-4.1l-22.6-76.1c-0.5-1.6-2.1-2.6-3.8-2.3l-60.6,10.3c-1.9,0.3-3.1,2.1-2.7,3.9l29.5,123.3
	c0.4,1.8-0.8,3.5-2.6,3.9l-16.3,4.3c-1.8,0.4-3,2.1-2.6,3.8l1.8,8.5c0.4,1.7,2.2,2.9,4,2.5l32-7.4c1.8-0.4,3-2.1,2.6-3.8l-13.4-57
	c-0.4-1.8,0.9-3.6,2.9-3.9l9.8-1.2c1.5-0.2,2.9,0.6,3.5,1.9l25.4,56C181.8,271.9,183.4,272.7,184.9,272.3z M161.9,144.9l12.5,46.1
	c0.5,1.9-0.8,3.7-2.8,4l-33.3,4c-1.7,0.2-3.3-0.9-3.7-2.5l-10.8-44.2c-0.4-1.8,0.8-3.5,2.6-3.9l31.7-5.9
	C159.7,142.3,161.4,143.3,161.9,144.9z"/>
<path class="st5" d="M219.3,260.7l-30.1-109.1c-0.5-1.8,0.7-3.6,2.6-4l9.5-1.6c1.7-0.3,3.3,0.7,3.7,2.3l25.4,95
	c0.4,1.7,2.2,2.7,3.9,2.3l25-5.9c1.7-0.4,2.8-2.1,2.4-3.8l-21.2-93.1c-0.4-1.7,0.7-3.4,2.4-3.8l8.5-1.9c1.8-0.4,3.5,0.7,3.9,2.4
	l24.7,108c0.4,1.7-0.7,3.4-2.5,3.8L223.1,263C221.4,263.4,219.7,262.4,219.3,260.7z"/>
<path class="st5" d="M341,96.2l-2.1-8.7c-0.4-1.7-2.1-2.8-3.7-2.4L187,118.5c-1.8,0.4-2.8,2.2-2.4,4.1l2.1,8.7
	c0.4,1.7,2.1,2.8,3.7,2.4l72.5-16.3c1.7-0.4,3.3,0.7,3.7,2.5L291,219c0.4,1.8,3.3,1.4,5,1l6-1c1.7-0.4,4.4-1.2,4-3l-24.7-99.3
	c-0.4-1.8,0.7-3.7,2.4-4.1l54.9-12.4C340.3,99.9,341.4,98.1,341,96.2z"/>
<path class="st5" d="M436,97l-129.9,26.3c-1.7,0.4-2.8,2-2.5,3.8l17.2,83.8c0.4,1.8,2.1,2.9,3.9,2.5L458,184c1.7-0.4,0.4-4.3,0-6
	l-17-77C440.6,99.3,437.7,96.6,436,97z M334,192l-11.9-53.4c-0.6-2.3,1.3-4.6,4.2-5.1L427,113c3-0.5,3.3,1.7,4,4l10,49
	c0.7,2.4,1.1,5.5-2,6l-101,25C335,197.5,334.6,194.3,334,192z"/>
<path class="st5" d="M222.5,281.1l-51.7,14.6c-1.2,0.4-1.9,1.7-1.6,3l2,8.6c0.3,1.3,1.5,2,2.6,1.6l6.7-2.2c1.2-0.4,2.3,0.3,2.6,1.6
	l13.2,54.5c0.3,1.3-0.5,2.7-1.7,3l0,0c-1.2,0.3-2,1.6-1.8,2.8l1.4,8.8c0.2,1.3,1.3,2.1,2.5,1.8l47.4-11.3c1.3-0.3,2.1-1.7,1.7-3
	l-20.8-82.3C224.8,281.4,223.6,280.7,222.5,281.1z M197.1,301.4l16.5-3.3c1.2-0.4,2.3,0.3,2.6,1.5l14,55.1c0.3,1.3-0.5,2.7-1.7,3
	l-16.9,4c-1.1,0.3-2.2-0.4-2.5-1.6l-13.5-55.8C195.2,303.1,195.9,301.8,197.1,301.4z"/>
<path class="st5" d="M294.5,344.1l-20,5.5c-1.8,0.3-3.5-0.6-3.9-2.2l-3.7-14.1c-0.5-1.9,1-4.1,3.2-4.6l9.3-2.2
	c2.1-0.5,3.5-2.4,3.2-4.3l-1-6.9c-0.3-1.9-2.2-3-4.2-2.5c-3.8,1-7.6,2-11.4,3.1c-0.5,0.1-1.7,0.4-3,0c-1.7-0.5-2.7-1.6-3-2
	c-2-7.3-4-14.7-6-22c0-0.1-0.6-2.5,1-4c0.7-0.7,1.6-0.9,2-1c9-2.2,18-4.4,27-6.6c2-0.6,3.3-2.6,2.9-4.4l-1.5-6.7
	c-0.4-1.8-2.4-2.8-4.4-2.2l-41.1,9.4c-2.1,0.6-3.4,2.7-2.9,4.5l21.8,82.5c0.4,1.6,2.1,2.5,3.9,2.2l32.8-7.7c2.1-0.4,3.6-2.2,3.5-4.1
	l-0.4-7C298.3,345,296.6,343.8,294.5,344.1z"/>
<path class="st5" d="M321,237l-12,3c-1.6,0.7-2.5,3-2,5l1,12c0,0,0,0,0,0c0,0,0,0,0,0l10,103.9c0.2,1.9,1.9,2.3,4,2.1l10-1
	c2-0.2,2.2-2.1,2-4l-4-36c-0.2-1.7-0.8-3.6,1-4l18-3c1.7-0.4,2-2.3,2-4v-7c-0.1-2.2-0.7-4.4-3-4l-16,3c-2.2,0.4-4.8,1.1-5-1l-5-46
	c0,0,0,0,0,0c0-2-1-3,2-4l1.5-0.7L344,247c0,0,0,0,0,0l0.2,0l4-0.9c0,0,0-0.1-0.1-0.1l21.3-5.6l92.1-24c0.5-0.1,1-0.4,1.4-0.7
	c0.1-0.1,0.3-0.3,0.4-0.5c0.6-0.6,1-1.4,1-2.3l-1.7-7.2c0.1-1.9-1.7-3.3-3.8-2.9l-2.7,0.7c-1.1,0-2,0.5-2.1,0.5
	c-29.7,7.5-59.3,15-89,22.6c-6.8,1.7-13.5,3.4-20.3,5.1c-7.8,1.7-15.7,3.5-23.5,5.2"/>
<path class="st5" d="M482.7,365.3l-11.7,0.6c-1.6-0.2-2.8-1.5-2.9-3.1l-10.8-121c-0.2-1.9,1.2-3.6,3.2-3.8l8.9-0.8
	c1.9-0.2,3.6,1.2,3.8,3.2l6.9,76.9c0.3,3.6,5.3,4.4,6.7,1l41.5-107.6l3.8-9.6c0.6-1.5,2.4-2.2,4-2l59,6c2,0.3,3.5,1,3,3l-2,12
	c-0.5,1.7-2.2,2.3-4,2l-49-6c-1.6-0.3-2.4,2.5-2,4l-53.5,143.2C485.8,364.7,484.3,365.5,482.7,365.3z"/>
<path class="st5" d="M592,251l2-10c0.6-2,0-3.7-2-4l-33-5c-1.6-0.2-3.5,0.5-4,2l-51.7,130.1c-0.7,2.1,0.7,4.3,2.8,4.5L564,377
	c1.7,0.2,2.6-0.3,3-2l2-9c0.5-2-1-2.8-3-3l-40-7c-2.1-0.2-2.7-1.9-2-4l17.6-43.3c0.5-1.5,2-2.4,3.5-2.3l27.4,2.9
	c1.7,0.2,3.2-0.9,3.6-2.6l1.8-7.9c0.5-2-0.9-3.9-2.9-4.1l-23.4-2.8c-2.1-0.3-3.5-2.4-2.8-4.5L564,251c0.5-1.5,3.4-2.2,5-2l21,4
	C591.6,253.2,591.5,252.6,592,251z"/>
<path class="st5" d="M691,388l-109-9c-2,0-3.2-4.1-3-6l35.4-161.2c0.2-1.7,1.7-3,3.4-2.9l9.2,0.6c1.9,0.1,3.3,1.8,3,3.6L597,362
	c-0.2,2,0,3,2,3l90,8c1.8,0,6,0.2,6,2v10C695,386.8,692.8,388,691,388z"/>
<path class="st5" d="M646,216l-29,131.8c-0.6,2.2,1,4.3,3.3,4.2l7.9-0.2c1.8,0,3.4-1.4,3.9-3.1l13-51.7c0.5-1.8,2.2-3,4-3l61,4
	c2,0,3.2,2,3,4l-5,85c-0.2,2,1,3,3,3h11c2,0,1.8-2,2-4l10-162c0.2-2-1-3.9-3-4l-82-7C647.2,212.9,646.5,214.2,646,216z M649,274
	l8-42c0.5-1.8,3.1-3.1,5-3l54,5c2,0.1,3.2,3,3,5l-3,40c-0.2,2,0,4-2,4l-63-5C648.8,278,648.4,276.2,649,274z"/>
</svg>
