<?xml version="1.0" encoding="utf-8"?>
<!-- Generator: Adobe Illustrator 23.0.1, SVG Export Plug-In . SVG Version: 6.00 Build 0)  -->
<svg version="1.1" id="Camada_1" xmlns="http://www.w3.org/2000/svg" xmlns:xlink="http://www.w3.org/1999/xlink" x="0px" y="0px"
	 viewBox="0 0 1366 516" style="enable-background:new 0 0 1366 516;" xml:space="preserve">
<style type="text/css">
	.st0{fill:#FFFFFF;}
</style>
<g>
	<g>
		<path class="st0" d="M199.8,352.5h5.3l10.4,29h-6.2l-2-5.7h-9.6l-2.1,5.7h-6.2L199.8,352.5z M205.4,370.6l-2.9-8.2l-3,8.2H205.4z"
			/>
		<path class="st0" d="M223.7,367c0-8,6.5-14.5,14.5-14.5c3.8,0,7.5,1.5,10.2,4.3l-4,4.2c-1.6-1.7-3.8-2.6-6.2-2.6
			c-4.8,0-8.6,3.8-8.6,8.6c0,4.8,3.9,8.6,8.6,8.6c2.4,0,4.7-1,6.3-2.7l4.1,4.2c-2.8,2.9-6.5,4.4-10.4,4.4
			C230.2,381.5,223.7,375,223.7,367z"/>
		<path class="st0" d="M256.7,367c0-8,6.5-14.4,14.5-14.4c7.9,0,14.4,6.5,14.4,14.4c0,8-6.5,14.5-14.4,14.5
			C263.2,381.5,256.7,375,256.7,367z M279.8,367c0-4.7-3.9-8.6-8.6-8.6c-4.8,0-8.6,3.8-8.6,8.6c0,4.8,3.9,8.6,8.6,8.6
			C275.9,375.6,279.8,371.8,279.8,367z"/>
		<path class="st0" d="M296.8,352.5h5.8v23.1h12.6v5.9h-18.4V352.5z"/>
		<path class="st0" d="M327.7,352.6h5.9v13.6h8.6v-13.6h5.8v28.9h-5.8v-10.1h-8.6v10.1h-5.9V352.6z"/>
		<path class="st0" d="M360.4,352.6h18.3v5.8h-12.4v7.6h9.4v5.2h-9.4v4.4h13.3v5.9h-19.2V352.6z"/>
		<path class="st0" d="M390.8,352.6h9.8c4.1,0,10,3.8,10,10.9c0,3.9-1.7,7.1-4.8,8.9l4.5,9.1h-5.8l-3.9-7.8l-4,0v7.8h-5.8V352.6z
			 M401.5,367.8c0,0,3.3-0.2,3.3-4.3c0-3.9-3-5.1-4.1-5.1h-4v9.4H401.5z"/>
		<path class="st0" d="M435.9,368.1c0-1.8,1.5-3.3,3.4-3.3c1.8,0,3.3,1.5,3.3,3.3c0,1.9-1.5,3.4-3.3,3.4
			C437.4,371.5,435.9,370,435.9,368.1z"/>
		<path class="st0" d="M467.8,352.6h9c7.9,0,14.4,6.5,14.4,14.4c0,8-6.5,14.5-14.4,14.5h-9V352.6z M476.8,375.6
			c4.8,0,8.6-3.8,8.6-8.6c0-4.7-3.8-8.6-8.6-8.6h-3.2v17.1H476.8z"/>
		<path class="st0" d="M500.8,352.6h18.3v5.8h-12.4v7.6h9.4v5.2h-9.4v4.4H520v5.9h-19.2V352.6z"/>
		<path class="st0" d="M530.7,375.2l5.1-2.8c1,2.2,2.8,3.2,5.7,3.2c3.3-0.1,5.1-1.4,4.2-3.4c-0.5-0.9-1.3-1.2-4-1.7
			c-1.9-0.3-4-0.7-6-1.9c-3-1.8-4.5-5.3-3.7-8.8c0.7-3.8,3.9-6.6,8.2-7.3c5.5-0.8,10.1,1.4,12.7,6.4l-5.1,2.9
			c-1.5-2.8-3.7-3.9-6.8-3.4c-1.9,0.3-3.1,1.3-3.3,2.7c-0.6,2.6,1.7,3.1,4.9,3.6c3.1,0.5,7.6,1.2,8.7,6.1c0.7,2.8,0.2,5.3-1.3,7.1
			c-1.7,2.3-4.8,3.5-8.5,3.6C536.5,381.5,532.6,379.2,530.7,375.2z"/>
		<path class="st0" d="M564,352.6h18.3v5.8h-12.4v7.6h9.4v5.2h-9.4v4.4h13.3v5.9H564V352.6z"/>
		<path class="st0" d="M594.4,352.6h6l9.3,17v-17h5.8v28.9h-6l-9.3-17.1v17.1h-5.8V352.6z"/>
		<path class="st0" d="M625.4,352.6h6.2l6.8,19l6.8-19h6.2L641,381.5h-5.3L625.4,352.6z"/>
		<path class="st0" d="M658.3,367c0-8,6.5-14.4,14.5-14.4c7.9,0,14.4,6.5,14.4,14.4c0,8-6.5,14.5-14.4,14.5
			C664.8,381.5,658.3,375,658.3,367z M681.3,367c0-4.7-3.9-8.6-8.6-8.6c-4.8,0-8.6,3.8-8.6,8.6c0,4.8,3.9,8.6,8.6,8.6
			C677.4,375.6,681.3,371.8,681.3,367z"/>
		<path class="st0" d="M698.4,352.5h5.8v23.1h12.6v5.9h-18.4V352.5z"/>
		<path class="st0" d="M724.5,352.6h6.2l6.8,19l6.8-19h6.2l-10.3,28.9h-5.3L724.5,352.6z"/>
		<path class="st0" d="M761.6,352.6h18.3v5.8h-12.4v7.6h9.4v5.2h-9.4v4.4h13.3v5.9h-19.2V352.6z"/>
		<path class="st0" d="M792,352.6h9.8c4.1,0,10,3.8,10,10.9c0,3.9-1.7,7.1-4.8,8.9l4.5,9.1h-5.8l-3.9-7.8l-4,0v7.8H792V352.6z
			 M802.7,367.8c0,0,3.3-0.2,3.3-4.3c0-3.9-3-5.1-4.1-5.1h-4v9.4H802.7z"/>
		<path class="st0" d="M837.1,368.1c0-1.8,1.5-3.3,3.4-3.3c1.8,0,3.3,1.5,3.3,3.3c0,1.9-1.5,3.4-3.3,3.4
			C838.6,371.5,837.1,370,837.1,368.1z"/>
		<path class="st0" d="M869.1,352.6h18.3v5.8h-12.4v7.6h9.4v5.2h-9.4v4.4h13.3v5.9h-19.2V352.6z"/>
		<path class="st0" d="M899.5,352.6h6l9.3,17v-17h5.8v28.9h-6l-9.3-17.1v17.1h-5.8V352.6z"/>
		<path class="st0" d="M931.8,367c0-8,6.5-14.5,14.5-14.5c3.8,0,7.5,1.5,10.2,4.3l-4,4.2c-1.6-1.7-3.8-2.6-6.2-2.6
			c-4.8,0-8.6,3.8-8.6,8.6c0,4.8,3.9,8.6,8.6,8.6c2.4,0,4.7-1,6.3-2.7l4.1,4.2c-2.8,2.9-6.5,4.4-10.4,4.4
			C938.3,381.5,931.8,375,931.8,367z"/>
		<path class="st0" d="M975.5,352.5h5.3l10.4,29H985l-2-5.7h-9.6l-2.1,5.7h-6.2L975.5,352.5z M981.1,370.6l-2.9-8.2l-3,8.2H981.1z"
			/>
		<path class="st0" d="M1002.2,352.6h6l6.7,13.5l6.7-13.5h6v28.9h-5.9v-16.1l-4.4,8.8h-5l-4.4-8.8v16.1h-5.8V352.6z"/>
		<path class="st0" d="M1038.9,352.6h5.9v28.9h-5.9V352.6z"/>
		<path class="st0" d="M1056,352.6h6l9.3,17v-17h5.8v28.9h-6l-9.3-17.1v17.1h-5.8V352.6z"/>
		<path class="st0" d="M1089.6,352.6h5.9v13.6h8.6v-13.6h5.8v28.9h-5.8v-10.1h-8.6v10.1h-5.9V352.6z"/>
		<path class="st0" d="M1132.5,352.5h5.3l10.4,29h-6.2l-2-5.7h-9.6l-2.1,5.7h-6.2L1132.5,352.5z M1138.1,370.6l-2.9-8.2l-3,8.2
			H1138.1z"/>
		<path class="st0" d="M1159.2,352.6h9.8c4.1,0,10,3.8,10,10.9c0,3.9-1.7,7.1-4.8,8.9l4.5,9.1h-5.8l-3.9-7.8l-4,0v7.8h-5.8V352.6z
			 M1169.9,367.8c0,0,3.3-0.2,3.3-4.3c0-3.9-3-5.1-4.1-5.1h-4v9.4H1169.9z"/>
	</g>
	<g>
		<g>
			<g>
				<g>
					<path class="st0" d="M228.4,210.7l0-9.2c0-2.1-1.7-3.9-3.9-3.9l-28.2,0.1c-1.9,0-3.5-1.4-3.8-3.3l-5.9-38.2
						c-0.4-2.4,1.5-4.5,3.9-4.5l48.4,1c2.1,0,3.9-1.6,3.9-3.8l0.2-9.2c0-2.1-1.6-3.9-3.8-3.9l-68.5-1.5c-2.4-0.1-4.3,2.1-3.9,4.5
						l25.4,159.6c0.3,1.9,2,3.3,3.9,3.3l11.1,0.2c2.3-0.1,4.1-2.2,3.7-4.4l-12.7-78c-0.4-2.3,1.4-4.4,3.8-4.5l22.4-0.5
						C226.7,214.6,228.4,212.9,228.4,210.7z"/>
					<path class="st0" d="M305.8,302.2L318,302c2.3,0,3.9-2.1,3.5-4.3l-12.9-61.5c-0.5-2.4,1.4-4.5,3.8-4.3l15.3,1.3
						c2.2,0.2,4-1.6,3.9-3.8l-5.8-88.2c-0.1-1.8-1.6-3.3-3.5-3.4l-65.7-2.2c-2-0.1-3.7,1.6-3.7,3.6l1.9,141.2c0,2-1.6,3.6-3.6,3.6
						l-18,1.1c-2,0-3.6,1.6-3.6,3.6l-0.1,9.7c0,2,1.6,3.6,3.6,3.6l35.2-0.9c2,0,3.6-1.6,3.6-3.6l-0.6-65.2c0-2.1,1.8-3.8,3.9-3.6
						l10.5,0.9c1.6,0.1,2.9,1.3,3.2,2.9l13.4,66.8C302.5,301,304,302.2,305.8,302.2z M311.6,157.9l2.2,53.1c0.1,2.2-1.7,3.9-3.9,3.7
						l-35.7-3c-1.8-0.2-3.2-1.7-3.3-3.5l-1-50.6c0-2,1.6-3.7,3.6-3.7l34.4,0.6C309.9,154.5,311.5,156,311.6,157.9z"/>
					<path class="st0" d="M349.4,302.5l-6.9-127.9c-0.1-2.1,1.6-3.9,3.7-3.8l10.7,0.4c1.9,0.1,3.4,1.6,3.5,3.4l5,111.1
						c0.1,2,1.7,3.5,3.7,3.4l28.5-0.8c2-0.1,3.5-1.7,3.5-3.6l-0.9-108.1c0-2,1.6-3.6,3.5-3.6l9.7-0.2c2,0,3.6,1.6,3.7,3.6l1.2,125.4
						c0,2-1.6,3.6-3.6,3.6l-61.8,0.4C351.1,305.9,349.5,304.4,349.4,302.5z"/>
					<path class="st0" d="M519.1,155.8L519,146c0-1.9-1.6-3.5-3.5-3.5l-171.7-4.7c-2-0.1-3.7,1.6-3.7,3.6l0.1,9.7
						c0,1.9,1.6,3.5,3.5,3.5l84,2.3c1.9,0.1,3.5,1.6,3.5,3.6l0.6,142.4c0,2,1.6,3.6,3.6,3.6l9.7-0.1c2,0,3.6-1.6,3.6-3.6l-0.6-141.7
						c0-2,1.7-3.7,3.7-3.6l63.6,1.7C517.5,159.4,519.2,157.8,519.1,155.8z"/>
					<path class="st0" d="M551.7,175.3l-81.5-1.7c-2,0-3.6,1.6-3.6,3.6l-0.8,96.9c0,2,1.7,3.7,3.7,3.6l82.4-2.2c2,0,3.5-1.7,3.5-3.6
						l-0.1-93C555.3,176.9,553.7,175.3,551.7,175.3z M487,190.6l47.9,1.5c2,0,3.6,1.6,3.6,3.6l0.1,59.7c0,2-1.6,3.6-3.5,3.6
						l-48.5,1.5c-2,0-3.7-1.6-3.7-3.6l0.5-62.7C483.4,192.2,485,190.5,487,190.6z"/>
				</g>
				<g>
					<path class="st0" d="M778.3,229.2l-23.6,2.3c-2.8,0.5-5.5-1.4-5.7-4.1l-6.3-68.9c-0.2-2.3-0.3-4.2,5.9-4.9l167,0
						c2.6-0.5,4.2-3,3.7-5.4l-2.7-7.4c-0.6-2.5-3.1-4-5.7-3.5l-184-0.3c-2.4,0.5-4,2.6-3.8,4.9L738,302.2c0.2,2.5,0.5,4.4,3.1,4.1
						l10.4-1.1c2.6-0.2,4.6-2.4,4.3-4.9l-4-45.4c-0.2-2.3,1.3-4.3,3.6-4.8l25.2-3.6c2.2-0.5,3.7-2.4,3.7-4.5l-0.3-8.3
						C784,230.8,781.2,228.7,778.3,229.2z"/>
					<path class="st0" d="M876,169.5l-80.8,2.1c-1.9,0.1-3.2,1.7-3,3.6l17,126.3c0.2,1.9,1.7,3.5,3.6,3.8l8.4-0.8
						c2.2,0.3,4-1.3,3.9-3.5l-6.1-56.7c-0.1-1.8,1.2-3.3,3-3.5l43.2-4.6c2.2-0.2,4.4,1.6,4.5,3.9l3.8,61.7c0.1,1.9,1.6,3.6,3.5,3.9
						l10.2-0.4c2.2,0.4,4.1-1.3,3.9-3.5l-10.7-128.3C880.2,171.2,878.2,169.4,876,169.5z M814.4,220l-3.9-29.5
						c-0.1-2.1,1.4-3.7,3.5-3.8l48.9-1.7c2.4-0.1,4.6,2,4.6,4.5l2.7,28.2c0,2-1.4,3.6-3.4,3.7l-47.7,3
						C816.7,224.5,814.5,222.4,814.4,220z"/>
					<path class="st0" d="M922,305.4l-12.5,0c-1.7-0.3-2.9-1.8-3-3.5l-5.2-129.2c-0.1-2,1.5-3.8,3.5-3.8l9.5-0.4
						c2-0.1,3.8,1.5,3.8,3.5l3.4,82.1c0.2,3.9,5.4,4.9,7,1.4l49.7-112.2l1.8-3.7c0.7-1.5,2.4-2.4,4.1-2l68.3,1.5
						c2.2,0.4,3.4,2.7,2.8,4.8l-3.1,9.5c-0.6,1.8-2.4,2.9-4.3,2.5l-54.2,1.2c-1.7-0.4-3.4,0.5-4.1,2.1L926,303.3
						C925.3,304.9,923.6,305.7,922,305.4z"/>
					<path class="st0" d="M1041.5,186.8l1.8-8.9c0.4-2-1.1-3.9-3.1-4l-34.6-1.3c-1.6-0.1-3,1-3.4,2.5l-39,124.9
						c-0.5,2.1,1,4.1,3.2,4.1l57.8,0.8c1.7,0,3.1-1.2,3.3-2.9l1.1-7.9c0.3-2-1.2-3.8-3.2-3.8l-39.8-1c-2.1-0.1-3.7-2.1-3.1-4.1
						l14-42.7c0.4-1.5,1.7-2.5,3.3-2.5l27.5,0.4c1.7,0,3.1-1.2,3.3-2.9l1.1-7.9c0.3-2-1.2-3.8-3.2-3.8l-23.5-0.7
						c-2.1-0.1-3.7-2.1-3.1-4.1l9.7-30.1c0.4-1.5,1.8-2.6,3.4-2.5l22.9,1.1C1039.7,189.6,1041.2,188.5,1041.5,186.8z"/>
					<path class="st0" d="M1157.3,302.4l-111.5,0c-2,0.1-3.6-1.6-3.5-3.6l30.3-158.9c0.2-1.8,1.7-3.1,3.4-3l9.4,0.3
						c1.9,0.1,3.4,1.7,3.2,3.7L1059,282.9c-0.2,2,1.4,3.7,3.4,3.7l94.3,0.6c1.8-0.1,3.4,1.4,3.5,3.2l0.3,8.5
						C1160.6,300.7,1159.2,302.3,1157.3,302.4z"/>
					<path class="st0" d="M1107.1,139.8l-28.7,132.4c-0.5,2.3,1.3,4.3,3.7,4.1l8.3-0.7c1.9-0.2,3.5-1.6,3.9-3.4l11.4-56
						c0.4-1.9,2.1-3.3,4-3.4l65.5-3.4c2.1-0.1,3.8,1.5,3.6,3.5l-5.1,84.1c-0.1,2.1,1.5,3.7,3.6,3.5l7.7-0.4c2.1-0.1,4-1.9,4.1-4
						l9.9-158.1c0.1-2-1.4-3.6-3.5-3.6l-84.4,1.9C1109.3,136.5,1107.5,137.9,1107.1,139.8z M1110.4,193.6l9-39.2
						c0.4-1.9,2.2-3.4,4.2-3.4l55.7-1.2c2.1,0,3.7,1.5,3.5,3.6l-2.5,37.2c-0.1,2.1-2,3.8-4.1,4l-62.2,3.2
						C1111.7,197.8,1110,195.9,1110.4,193.6z"/>
					<path class="st0" d="M747.5,211.2"/>
				</g>
				<path class="st0" d="M639.1,176.1l-56.1,4.2c-1.3,0.1-2.3,1.4-2.3,2.8l0.2,9.5c0,1.4,1.1,2.4,2.4,2.2l7.3-0.8
					c1.3-0.1,2.3,0.8,2.4,2.2l1.8,60.3c0,1.5-1.1,2.8-2.4,2.8l0,0c-1.3,0-2.4,1.2-2.4,2.6l-0.5,9.5c-0.1,1.4,0.9,2.5,2.2,2.4
					l50.9-1.7c1.4,0,2.5-1.4,2.4-2.8l-3.5-91.1C641.4,177,640.3,176,639.1,176.1z M608.6,192l17.6,0.1c1.3-0.1,2.3,0.8,2.4,2.2
					l2.4,61c0.1,1.5-1.1,2.8-2.4,2.8l-18.2,0.6c-1.2,0-2.2-0.9-2.2-2.2l-1.8-61.7C606.3,193.4,607.4,192.2,608.6,192z"/>
				<path class="st0" d="M691,254.8l-18.9,1.8c-1.7,0-2.9-1.3-3-3l-0.6-15.1c-0.1-2.1,1.6-4,3.7-4.1l8.7-0.5
					c1.9-0.1,3.6-1.8,3.7-3.7l0.5-7.2c0.1-1.9-1.3-3.4-3.3-3.3l-10.8,0.6c-1.8,0.1-3.2-1.2-3.3-3l-1-23.4c-0.1-2,1.5-3.8,3.5-4.1
					l23.8-2c1.9-0.2,3.5-2,3.5-4l-0.1-7.2c0-1.9-1.6-3.3-3.5-3.1l-38.3,1.7c-2,0.3-3.5,2.1-3.5,4.1l3.3,88.3c0.1,1.7,1.3,3,3,3
					l30.6-1.6c1.9,0,3.7-1.5,3.9-3.5l1-7.2C694.3,256.4,692.9,254.8,691,254.8z"/>
				<path class="st0" d="M573.5,154.4l0.3,5.2c0.1,2.7,2.4,4.8,5.2,4.7l118.7-4c3-0.1,5.2-2.7,4.8-5.7l-1.3-10.1
					c-0.3-2.6-2.7-4.5-5.3-4.3l-117.7,8.9C575.5,149.3,573.4,151.7,573.5,154.4z"/>
			</g>
			<path class="st0" d="M470.2,291.2l232.4-4.9c3-0.1,5.5,2.1,5.7,5.1l0.4,6.2c0.2,3.1-2.2,5.8-5.4,5.9l-232.6,2.7
				c-2.9,0.1-5.4-2.2-5.6-5.1l-0.3-4C464.8,294,467.1,291.4,470.2,291.2z"/>
		</g>
	</g>
</g>
</svg>
