<svg xmlns="http://www.w3.org/2000/svg" width="35.376" height="26.952" viewBox="0 0 35.376 26.952"><defs><style>.cls-1 {fill: none;stroke: #fff;}</style></defs><g id="Object" transform="translate(-7.012 -17.311)"><g id="Grupo_19" data-name="Grupo 19" transform="translate(7.7 18)"><path id="Caminho_17" data-name="Caminho 17" class="cls-1" d="M336.092,105.967l-.005.031a.646.646,0,0,0,.144.5.625.625,0,0,0,.056-.734l-.056-.062-.056.062A.638.638,0,0,0,336.092,105.967Z" transform="translate(-319.228 -101.199)"/><path id="Caminho_18" data-name="Caminho 18" class="cls-1" d="M74.4,285.71l.015-.01-.015.005Z" transform="translate(-70.977 -271.961)"/><path id="Caminho_19" data-name="Caminho 19" class="cls-1" d="M310.616,399.5l-.816.508.816.5Z" transform="translate(-294.296 -379.921)"/><path id="Caminho_20" data-name="Caminho 20" class="cls-1" d="M70.416,285.61l.015-.01-.015.01a1.363,1.363,0,0,0-.216.133l.216-.133Z" transform="translate(-66.992 -271.867)"/><path id="Caminho_21" data-name="Caminho 21" class="cls-1" d="M179.825,341.229a10.152,10.152,0,0,1-1.175-1.129l-4.249,2.633,1.5.929.411-.257a1.373,1.373,0,0,1,.3-.185Z" transform="translate(-165.845 -323.57)"/><path id="Caminho_22" data-name="Caminho 22" class="cls-1" d="M106.328,265.119a9.434,9.434,0,0,1-.544-1.519l-5.763,3.567-.174.108-.046.031.051-.026a7.982,7.982,0,0,0,1.124,1.16l.226-.144.421-.262Z" transform="translate(-95.073 -250.996)"/><path id="Caminho_23" data-name="Caminho 23" class="cls-1" d="M18.113,27.517l4.475-2.771v.005l1.93-1.191.072-.046.118-.123a.609.609,0,0,1-.144-.5l.005-.031a.8.8,0,0,1,.077-.21l.056-.062a.633.633,0,0,1,.816-.149l.021.01,5.507,3.438,1.1.693a1.39,1.39,0,0,0,2.15-1.458,1.367,1.367,0,0,0-.642-.878l-.041-.026-6.892-4.306-.005.005-.015-.01a9.55,9.55,0,0,0-2-.934,9.741,9.741,0,0,0-5.178-.3,9.444,9.444,0,0,0-1.17.328,9.561,9.561,0,0,0-1.011.421,2.858,2.858,0,0,1-2.078-.37l-1.54-.955L7.7,27.841l1.4.862.867.539a2.884,2.884,0,0,1,.878,1.493l.026.133c.036.205.092.405.144.606.036.123.072.241.113.359l.015-.01Z" transform="translate(-7.7 -18.095)"/><path id="Caminho_24" data-name="Caminho 24" class="cls-1" d="M84.342,18l-1.54.955a2.862,2.862,0,0,1-2.078.37,10.236,10.236,0,0,0-1.011-.421,10.049,10.049,0,0,0-1.165-.328,9.744,9.744,0,0,0-5.178.3,9.69,9.69,0,0,1,2,.934l.015.01.005-.005,6.9,4.306.041.026a1.391,1.391,0,1,1-1.509,2.335L79.708,25.8,74.2,22.362l-.021-.01a.633.633,0,0,0-.816.149l.056.062a.632.632,0,0,1-.056.734l-.118.123-.072.046-1.93,1.191v-.005L66.77,27.422l-6.964,4.316-.015.01-.216.133a1.435,1.435,0,0,0,1.514,2.427l.046-.031.174-.108L67.073,30.6a9.953,9.953,0,0,0,.544,1.519l-4.7,2.915-.421.262a1.436,1.436,0,1,0,1.925,2.13l.021.026.477-.293,4.249-2.633a9.374,9.374,0,0,0,1.175,1.129l-3.213,1.991a1.26,1.26,0,0,0-.3.185,1.415,1.415,0,0,0-.549,1.119,1.427,1.427,0,0,0,2.479.97l.041.056.344-.21,2.72-1.683.816-.5V36.86l-.005-.139.005-.139a1.435,1.435,0,0,1,2.864.123v4.337l1.581-.98V34.607l-.005-.067.005-.067a1.419,1.419,0,0,1,.4-.919,1.454,1.454,0,0,1,1.037-.446,1.436,1.436,0,0,1,1.432,1.437l-.005.067h.005V38.3l1.581-.98V33.6l.01-.133v-.174h.026a1.429,1.429,0,0,1,2.792,0h.026v.221l.005.056.005.031-.005.067V35.48a8.056,8.056,0,0,0,2.771-4.7l.026-.133a2.831,2.831,0,0,1,.878-1.493l.867-.539,1.4-.862Z" transform="translate(-56.367 -18)"/><path id="Caminho_25" data-name="Caminho 25" class="cls-1" d="M415.069,313.8h-.005l.005-.067a1.432,1.432,0,0,0-.4-.991,1.453,1.453,0,0,0-1.037-.447,1.413,1.413,0,0,0-1.037.447,1.445,1.445,0,0,0-.4.919l-.005.067.005.067v5.455l.015-.01a1.422,1.422,0,0,0,2.823-.015h.01v-.118l.005-.062-.005-.062V317.5l.01-.005V313.8Z" transform="translate(-391.441 -297.196)"/><path id="Caminho_26" data-name="Caminho 26" class="cls-1" d="M263.2,356.152v-.031a1.435,1.435,0,0,0-2.864-.123l-.005.139.005.139v1.735l-.816-.5-2.72,1.683,1.5.929.411-.257.031-.021,1.591-.985v3.372l.077-.046a1.42,1.42,0,0,0,2.766-.251h.01v-.118l.005-.062-.005-.062v-1.227l.005-.005v-2.53Z" transform="translate(-244.016 -337.42)"/><path id="Caminho_27" data-name="Caminho 27" class="cls-1" d="M501.669,295.332l-.005-.031-.005-.056v-.221h-.026a1.431,1.431,0,0,0-1.4-1.124,1.371,1.371,0,0,0-.611.144,1.433,1.433,0,0,0-.785.98h-.031v.174l-.01.133v3.726l.01-.005v.231l-.005.062.005.062v.118h.01a1.421,1.421,0,0,0,2.823,0h.01v-.118l.005-.062-.005-.062V297.22l.005-.005V295.4Z" transform="translate(-473.596 -279.741)"/><path id="Caminho_28" data-name="Caminho 28" class="cls-1" d="M284.243,436.711V435.7l-1.591.985-.031.02a1.432,1.432,0,0,0,.811,2.612,1.448,1.448,0,0,0,.816-.251v-2.356Z" transform="translate(-267.923 -414.263)"/></g></g></svg>
