<?xml version="1.0" encoding="UTF-8" standalone="no"?>
<!-- Created with Inkscape (http://www.inkscape.org/) -->

<svg
   xmlns:dc="http://purl.org/dc/elements/1.1/"
   xmlns:cc="http://creativecommons.org/ns#"
   xmlns:rdf="http://www.w3.org/1999/02/22-rdf-syntax-ns#"
   xmlns:svg="http://www.w3.org/2000/svg"
   xmlns="http://www.w3.org/2000/svg"
   xmlns:sodipodi="http://sodipodi.sourceforge.net/DTD/sodipodi-0.dtd"
   xmlns:inkscape="http://www.inkscape.org/namespaces/inkscape"
   width="990mm"
   height="29mm"
   viewBox="0 0 3507.874 102.75591"
   id="svg2"
   version="1.1"
   inkscape:version="0.91 r13725"
   sodipodi:docname="subtitulo.svg">
  <defs
     id="defs4" />
  <sodipodi:namedview
     id="base"
     pagecolor="#ffffff"
     bordercolor="#000000"
     borderopacity="1.0"
     inkscape:pageopacity="0.0"
     inkscape:pageshadow="2"
     inkscape:zoom="0.21"
     inkscape:cx="1523.8849"
     inkscape:cy="520"
     inkscape:document-units="px"
     inkscape:current-layer="layer1"
     showgrid="false"
     inkscape:window-width="1366"
     inkscape:window-height="705"
     inkscape:window-x="-8"
     inkscape:window-y="-8"
     inkscape:window-maximized="1" />
  <metadata
     id="metadata7">
    <rdf:RDF>
      <cc:Work
         rdf:about="">
        <dc:format>image/svg+xml</dc:format>
        <dc:type
           rdf:resource="http://purl.org/dc/dcmitype/StillImage" />
        <dc:title></dc:title>
      </cc:Work>
    </rdf:RDF>
  </metadata>
  <g
     inkscape:label="Camada 1"
     inkscape:groupmode="layer"
     id="layer1"
     transform="translate(0,-949.6063)">
    <g
       transform="matrix(3.3100419,0,0,3.3100419,-340.18103,-432.65371)"
       id="g5"
       style="fill:#ffffff;fill-opacity:1">
      <path
         inkscape:connector-curvature="0"
         class="st0"
         d="m 149.8,418.5 5.3,0 10.4,29 -6.2,0 -2,-5.7 -9.6,0 -2.1,5.7 -6.2,0 10.4,-29 z m 5.6,18.1 -2.9,-8.2 -3,8.2 5.9,0 z"
         id="path7"
         style="fill:#ffffff;fill-opacity:1" />
      <path
         inkscape:connector-curvature="0"
         class="st0"
         d="m 173.7,433 c 0,-8 6.5,-14.5 14.5,-14.5 3.8,0 7.5,1.5 10.2,4.3 l -4,4.2 c -1.6,-1.7 -3.8,-2.6 -6.2,-2.6 -4.8,0 -8.6,3.8 -8.6,8.6 0,4.8 3.9,8.6 8.6,8.6 2.4,0 4.7,-1 6.3,-2.7 l 4.1,4.2 c -2.8,2.9 -6.5,4.4 -10.4,4.4 -8,0 -14.5,-6.5 -14.5,-14.5 z"
         id="path9"
         style="fill:#ffffff;fill-opacity:1" />
      <path
         inkscape:connector-curvature="0"
         class="st0"
         d="m 206.7,433 c 0,-8 6.5,-14.4 14.5,-14.4 7.9,0 14.4,6.5 14.4,14.4 0,8 -6.5,14.5 -14.4,14.5 -8,0 -14.5,-6.5 -14.5,-14.5 z m 23.1,0 c 0,-4.7 -3.9,-8.6 -8.6,-8.6 -4.8,0 -8.6,3.8 -8.6,8.6 0,4.8 3.9,8.6 8.6,8.6 4.7,0 8.6,-3.8 8.6,-8.6 z"
         id="path11"
         style="fill:#ffffff;fill-opacity:1" />
      <path
         inkscape:connector-curvature="0"
         class="st0"
         d="m 246.8,418.5 5.8,0 0,23.1 12.6,0 0,5.9 -18.4,0 0,-29 z"
         id="path13"
         style="fill:#ffffff;fill-opacity:1" />
      <path
         inkscape:connector-curvature="0"
         class="st0"
         d="m 277.7,418.6 5.9,0 0,13.6 8.6,0 0,-13.6 5.8,0 0,28.9 -5.8,0 0,-10.1 -8.6,0 0,10.1 -5.9,0 0,-28.9 z"
         id="path15"
         style="fill:#ffffff;fill-opacity:1" />
      <path
         inkscape:connector-curvature="0"
         class="st0"
         d="m 310.4,418.6 18.3,0 0,5.8 -12.4,0 0,7.6 9.4,0 0,5.2 -9.4,0 0,4.4 13.3,0 0,5.9 -19.2,0 0,-28.9 z"
         id="path17"
         style="fill:#ffffff;fill-opacity:1" />
      <path
         inkscape:connector-curvature="0"
         class="st0"
         d="m 340.8,418.6 9.8,0 c 4.1,0 10,3.8 10,10.9 0,3.9 -1.7,7.1 -4.8,8.9 l 4.5,9.1 -5.8,0 -3.9,-7.8 -4,0 0,7.8 -5.8,0 0,-28.9 z m 10.7,15.2 c 0,0 3.3,-0.2 3.3,-4.3 0,-3.9 -3,-5.1 -4.1,-5.1 l -4,0 0,9.4 4.8,0 z"
         id="path19"
         style="fill:#ffffff;fill-opacity:1" />
      <path
         inkscape:connector-curvature="0"
         class="st0"
         d="m 385.9,434.1 c 0,-1.8 1.5,-3.3 3.4,-3.3 1.8,0 3.3,1.5 3.3,3.3 0,1.9 -1.5,3.4 -3.3,3.4 -1.9,0 -3.4,-1.5 -3.4,-3.4 z"
         id="path21"
         style="fill:#ffffff;fill-opacity:1" />
      <path
         inkscape:connector-curvature="0"
         class="st0"
         d="m 417.8,418.6 9,0 c 7.9,0 14.4,6.5 14.4,14.4 0,8 -6.5,14.5 -14.4,14.5 l -9,0 0,-28.9 z m 9,23 c 4.8,0 8.6,-3.8 8.6,-8.6 0,-4.7 -3.8,-8.6 -8.6,-8.6 l -3.2,0 0,17.1 3.2,0 z"
         id="path23"
         style="fill:#ffffff;fill-opacity:1" />
      <path
         inkscape:connector-curvature="0"
         class="st0"
         d="m 450.8,418.6 18.3,0 0,5.8 -12.4,0 0,7.6 9.4,0 0,5.2 -9.4,0 0,4.4 13.3,0 0,5.9 -19.2,0 0,-28.9 z"
         id="path25"
         style="fill:#ffffff;fill-opacity:1" />
      <path
         inkscape:connector-curvature="0"
         class="st0"
         d="m 480.7,441.2 5.1,-2.8 c 1,2.2 2.8,3.2 5.7,3.2 3.3,-0.1 5.1,-1.4 4.2,-3.4 -0.5,-0.9 -1.3,-1.2 -4,-1.7 -1.9,-0.3 -4,-0.7 -6,-1.9 -3,-1.8 -4.5,-5.3 -3.7,-8.8 0.7,-3.8 3.9,-6.6 8.2,-7.3 5.5,-0.8 10.1,1.4 12.7,6.4 l -5.1,2.9 c -1.5,-2.8 -3.7,-3.9 -6.8,-3.4 -1.9,0.3 -3.1,1.3 -3.3,2.7 -0.6,2.6 1.7,3.1 4.9,3.6 3.1,0.5 7.6,1.2 8.7,6.1 0.7,2.8 0.2,5.3 -1.3,7.1 -1.7,2.3 -4.8,3.5 -8.5,3.6 -5,0 -8.9,-2.3 -10.8,-6.3 z"
         id="path27"
         style="fill:#ffffff;fill-opacity:1" />
      <path
         inkscape:connector-curvature="0"
         class="st0"
         d="m 514,418.6 18.3,0 0,5.8 -12.4,0 0,7.6 9.4,0 0,5.2 -9.4,0 0,4.4 13.3,0 0,5.9 -19.2,0 0,-28.9 z"
         id="path29"
         style="fill:#ffffff;fill-opacity:1" />
      <path
         inkscape:connector-curvature="0"
         class="st0"
         d="m 544.4,418.6 6,0 9.3,17 0,-17 5.8,0 0,28.9 -6,0 -9.3,-17.1 0,17.1 -5.8,0 0,-28.9 z"
         id="path31"
         style="fill:#ffffff;fill-opacity:1" />
      <path
         inkscape:connector-curvature="0"
         class="st0"
         d="m 575.4,418.6 6.2,0 6.8,19 6.8,-19 6.2,0 -10.4,28.9 -5.3,0 -10.3,-28.9 z"
         id="path33"
         style="fill:#ffffff;fill-opacity:1" />
      <path
         inkscape:connector-curvature="0"
         class="st0"
         d="m 608.3,433 c 0,-8 6.5,-14.4 14.5,-14.4 7.9,0 14.4,6.5 14.4,14.4 0,8 -6.5,14.5 -14.4,14.5 -8,0 -14.5,-6.5 -14.5,-14.5 z m 23,0 c 0,-4.7 -3.9,-8.6 -8.6,-8.6 -4.8,0 -8.6,3.8 -8.6,8.6 0,4.8 3.9,8.6 8.6,8.6 4.7,0 8.6,-3.8 8.6,-8.6 z"
         id="path35"
         style="fill:#ffffff;fill-opacity:1" />
      <path
         inkscape:connector-curvature="0"
         class="st0"
         d="m 648.4,418.5 5.8,0 0,23.1 12.6,0 0,5.9 -18.4,0 0,-29 z"
         id="path37"
         style="fill:#ffffff;fill-opacity:1" />
      <path
         inkscape:connector-curvature="0"
         class="st0"
         d="m 674.5,418.6 6.2,0 6.8,19 6.8,-19 6.2,0 -10.3,28.9 -5.3,0 -10.4,-28.9 z"
         id="path39"
         style="fill:#ffffff;fill-opacity:1" />
      <path
         inkscape:connector-curvature="0"
         class="st0"
         d="m 711.6,418.6 18.3,0 0,5.8 -12.4,0 0,7.6 9.4,0 0,5.2 -9.4,0 0,4.4 13.3,0 0,5.9 -19.2,0 0,-28.9 z"
         id="path41"
         style="fill:#ffffff;fill-opacity:1" />
      <path
         inkscape:connector-curvature="0"
         class="st0"
         d="m 742,418.6 9.8,0 c 4.1,0 10,3.8 10,10.9 0,3.9 -1.7,7.1 -4.8,8.9 l 4.5,9.1 -5.8,0 -3.9,-7.8 -4,0 0,7.8 -5.8,0 0,-28.9 z m 10.7,15.2 c 0,0 3.3,-0.2 3.3,-4.3 0,-3.9 -3,-5.1 -4.1,-5.1 l -4,0 0,9.4 4.8,0 z"
         id="path43"
         style="fill:#ffffff;fill-opacity:1" />
      <path
         inkscape:connector-curvature="0"
         class="st0"
         d="m 787.1,434.1 c 0,-1.8 1.5,-3.3 3.4,-3.3 1.8,0 3.3,1.5 3.3,3.3 0,1.9 -1.5,3.4 -3.3,3.4 -1.9,0 -3.4,-1.5 -3.4,-3.4 z"
         id="path45"
         style="fill:#ffffff;fill-opacity:1" />
      <path
         inkscape:connector-curvature="0"
         class="st0"
         d="m 819.1,418.6 18.3,0 0,5.8 -12.4,0 0,7.6 9.4,0 0,5.2 -9.4,0 0,4.4 13.3,0 0,5.9 -19.2,0 0,-28.9 z"
         id="path47"
         style="fill:#ffffff;fill-opacity:1" />
      <path
         inkscape:connector-curvature="0"
         class="st0"
         d="m 849.5,418.6 6,0 9.3,17 0,-17 5.8,0 0,28.9 -6,0 -9.3,-17.1 0,17.1 -5.8,0 0,-28.9 z"
         id="path49"
         style="fill:#ffffff;fill-opacity:1" />
      <path
         inkscape:connector-curvature="0"
         class="st0"
         d="m 881.8,433 c 0,-8 6.5,-14.5 14.5,-14.5 3.8,0 7.5,1.5 10.2,4.3 l -4,4.2 c -1.6,-1.7 -3.8,-2.6 -6.2,-2.6 -4.8,0 -8.6,3.8 -8.6,8.6 0,4.8 3.9,8.6 8.6,8.6 2.4,0 4.7,-1 6.3,-2.7 l 4.1,4.2 c -2.8,2.9 -6.5,4.4 -10.4,4.4 -8,0 -14.5,-6.5 -14.5,-14.5 z"
         id="path51"
         style="fill:#ffffff;fill-opacity:1" />
      <path
         inkscape:connector-curvature="0"
         class="st0"
         d="m 925.5,418.5 5.3,0 10.4,29 -6.2,0 -2,-5.7 -9.6,0 -2.1,5.7 -6.2,0 10.4,-29 z m 5.6,18.1 -2.9,-8.2 -3,8.2 5.9,0 z"
         id="path53"
         style="fill:#ffffff;fill-opacity:1" />
      <path
         inkscape:connector-curvature="0"
         class="st0"
         d="m 952.2,418.6 6,0 6.7,13.5 6.7,-13.5 6,0 0,28.9 -5.9,0 0,-16.1 -4.4,8.8 -5,0 -4.4,-8.8 0,16.1 -5.8,0 0,-28.9 z"
         id="path55"
         style="fill:#ffffff;fill-opacity:1" />
      <path
         inkscape:connector-curvature="0"
         class="st0"
         d="m 988.9,418.6 5.9,0 0,28.9 -5.9,0 0,-28.9 z"
         id="path57"
         style="fill:#ffffff;fill-opacity:1" />
      <path
         inkscape:connector-curvature="0"
         class="st0"
         d="m 1006,418.6 6,0 9.3,17 0,-17 5.8,0 0,28.9 -6,0 -9.3,-17.1 0,17.1 -5.8,0 0,-28.9 z"
         id="path59"
         style="fill:#ffffff;fill-opacity:1" />
      <path
         inkscape:connector-curvature="0"
         class="st0"
         d="m 1039.6,418.6 5.9,0 0,13.6 8.6,0 0,-13.6 5.8,0 0,28.9 -5.8,0 0,-10.1 -8.6,0 0,10.1 -5.9,0 0,-28.9 z"
         id="path61"
         style="fill:#ffffff;fill-opacity:1" />
      <path
         inkscape:connector-curvature="0"
         class="st0"
         d="m 1082.5,418.5 5.3,0 10.4,29 -6.2,0 -2,-5.7 -9.6,0 -2.1,5.7 -6.2,0 10.4,-29 z m 5.6,18.1 -2.9,-8.2 -3,8.2 5.9,0 z"
         id="path63"
         style="fill:#ffffff;fill-opacity:1" />
      <path
         inkscape:connector-curvature="0"
         class="st0"
         d="m 1109.2,418.6 9.8,0 c 4.1,0 10,3.8 10,10.9 0,3.9 -1.7,7.1 -4.8,8.9 l 4.5,9.1 -5.8,0 -3.9,-7.8 -4,0 0,7.8 -5.8,0 0,-28.9 z m 10.7,15.2 c 0,0 3.3,-0.2 3.3,-4.3 0,-3.9 -3,-5.1 -4.1,-5.1 l -4,0 0,9.4 4.8,0 z"
         id="path65"
         style="fill:#ffffff;fill-opacity:1" />
    </g>
  </g>
</svg>
