<svg xmlns="http://www.w3.org/2000/svg" width="58.908" height="58.908" viewBox="0 0 58.908 58.908">
  <defs>
    <style>
      .cls-1 {
        fill: #fff;
      }
    </style>
  </defs>
  <path id="Icon_simple-whatsapp" data-name="Icon simple-whatsapp" class="cls-1" d="M42.949,35.3c-.739-.368-4.337-2.128-5.007-2.371s-1.161-.368-1.652.368S34.4,35.664,33.973,36.15s-.857.515-1.586.184a19.921,19.921,0,0,1-5.9-3.645,22.269,22.269,0,0,1-4.075-5.081c-.427-.736-.047-1.141.319-1.51.334-.331.739-.847,1.107-1.284A6.222,6.222,0,0,0,24.57,23.6a1.349,1.349,0,0,0-.061-1.286c-.184-.368-1.649-3.976-2.263-5.415-.589-1.433-1.2-1.252-1.649-1.252-.422-.037-.911-.037-1.4-.037a2.767,2.767,0,0,0-1.956.881,8.194,8.194,0,0,0-2.565,6.075c0,3.571,2.626,7.032,2.992,7.548.366.479,5.167,7.842,12.518,11.009,1.753.736,3.117,1.178,4.183,1.544a10.155,10.155,0,0,0,4.614.3c1.409-.223,4.337-1.77,4.948-3.5a6.076,6.076,0,0,0,.442-3.5c-.182-.331-.663-.515-1.4-.847M29.6,53.386h-.039A24.554,24.554,0,0,1,17.157,50l-.884-.525-9.2,2.393L9.536,42.92,8.949,42A24.344,24.344,0,0,1,46.864,11.968,24.025,24.025,0,0,1,54,29.125,24.374,24.374,0,0,1,29.619,53.388M50.367,8.466A29.8,29.8,0,0,0,29.565,0a29.183,29.183,0,0,0-25.4,43.784L0,58.908l15.549-4.055a29.607,29.607,0,0,0,14.015,3.552h.015a29.307,29.307,0,0,0,29.329-29.2A28.949,28.949,0,0,0,50.33,8.561"/>
</svg>
